<?xml version="1.0" standalone="no"?>
<!DOCTYPE svg PUBLIC "-//W3C//DTD SVG 20010904//EN"
 "http://www.w3.org/TR/2001/REC-SVG-20010904/DTD/svg10.dtd">
<svg version="1.0" xmlns="http://www.w3.org/2000/svg"
 width="180.000000pt" height="180.000000pt" viewBox="0 0 180.000000 180.000000"
 preserveAspectRatio="xMidYMid meet">

<g transform="translate(0.000000,180.000000) scale(0.100000,-0.100000)"
fill="#000000" stroke="none">
<path d="M131 1450 c0 -14 6 -122 13 -240 l13 -215 3 185 c1 110 5 175 10 160
5 -14 9 -19 10 -10 2 8 8 -16 15 -55 l13 -70 -5 108 -6 107 262 0 261 0 1 -52
c2 -49 2 -50 8 -16 4 25 10 35 18 30 7 -5 17 -80 27 -202 22 -267 22 -270 16
-271 -3 0 -23 -3 -45 -5 -22 -3 -68 -8 -103 -12 -34 -4 -62 -10 -62 -14 0 -5
0 -28 0 -51 l0 -44 98 -16 c53 -9 129 -22 169 -29 71 -14 72 -14 68 6 -2 12
-4 93 -6 181 -1 121 -3 147 -9 107 -9 -59 -15 -71 -23 -47 -4 8 -2 15 3 15 6
0 10 18 10 40 0 33 -3 40 -20 40 -17 0 -20 7 -20 39 0 29 5 41 18 44 9 3 -2 5
-25 6 l-43 1 -1 -37 c0 -21 -3 -32 -6 -25 -3 7 -2 33 1 57 7 43 8 44 49 48
l42 4 -42 1 c-26 1 -43 7 -44 15 -1 6 -5 1 -9 -13 -7 -21 -8 -19 -9 16 -1 23
2 55 5 71 5 26 10 29 46 30 22 1 46 7 53 13 8 7 19 9 25 5 5 -3 10 -1 10 4 0
6 4 11 9 11 5 0 13 -21 19 -47 l10 -48 1 67 1 67 48 4 c26 3 -9 3 -78 1 -69
-2 -135 -7 -147 -10 -20 -6 -23 -3 -23 25 l0 31 -67 1 c-38 1 -179 4 -316 8
l-247 6 1 -25z m69 -16 c0 -2 -11 -4 -25 -4 -14 0 -25 4 -25 9 0 4 11 6 25 3
14 -2 25 -6 25 -8z m543 -4 c3 -11 3 -20 1 -20 -2 0 -8 9 -14 20 -6 11 -7 20
-2 20 6 0 12 -9 15 -20z"/>
<path d="M1118 1403 c17 -2 47 -2 65 0 17 2 3 4 -33 4 -36 0 -50 -2 -32 -4z"/>
<path d="M1262 1380 c0 -14 2 -19 5 -12 2 6 2 18 0 25 -3 6 -5 1 -5 -13z"/>
<path d="M1220 1300 c0 -5 -35 -11 -77 -13 l-78 -3 83 -2 c67 -2 82 1 82 13 0
8 -2 15 -5 15 -3 0 -5 -4 -5 -10z"/>
<path d="M1220 1200 c0 -5 -42 -11 -92 -13 l-93 -3 98 -2 c80 -2 97 1 97 13 0
8 -2 15 -5 15 -3 0 -5 -4 -5 -10z"/>
<path d="M163 915 c0 -22 2 -30 4 -17 2 12 2 30 0 40 -3 9 -5 -1 -4 -23z"/>
<path d="M390 865 c-52 -7 -83 -13 -68 -14 24 -1 26 -4 19 -23 -6 -17 -26 -26
-100 -45 -102 -26 -171 -57 -171 -77 0 -19 110 -48 184 -48 33 1 75 -5 91 -12
l30 -13 -45 -9 c-56 -12 -58 -32 -5 -51 22 -7 46 -19 53 -27 14 -13 163 2 407
43 194 32 221 34 262 20 43 -15 60 -14 121 7 23 8 54 14 68 14 16 0 34 10 46
25 11 14 27 25 35 25 9 0 13 3 10 6 -4 4 -46 6 -94 5 -117 -3 -316 -25 -508
-57 l-40 -6 34 29 c39 34 33 42 -44 63 -27 8 -61 20 -75 27 -14 7 -31 13 -37
13 -8 0 -13 16 -14 43 0 23 -3 36 -6 30 -2 -7 -13 -13 -24 -13 -13 0 -19 7
-19 24 0 20 6 25 33 29 28 3 27 4 -8 4 -22 0 -83 -5 -135 -12z m94 -70 l-6
-52 65 -16 c37 -10 82 -17 101 -17 38 0 86 -15 86 -27 -1 -18 -84 -64 -126
-70 -68 -9 -63 -23 8 -24 60 -1 56 -2 -57 -20 l-120 -19 -72 21 c-40 12 -73
25 -73 29 0 4 23 10 50 14 34 5 50 11 50 21 0 8 -4 15 -10 15 -5 0 -10 4 -10
10 0 5 8 7 18 4 14 -4 14 -3 -2 8 -36 25 -71 58 -55 52 12 -4 18 3 23 26 3 17
13 46 21 63 14 29 19 32 65 33 l50 0 -6 -51z"/>
<path d="M356 711 c5 -5 20 -12 34 -15 24 -7 24 -6 6 8 -21 17 -57 23 -40 7z"/>
<path d="M228 843 c12 -2 30 -2 40 0 9 3 -1 5 -23 4 -22 0 -30 -2 -17 -4z"/>
<path d="M1170 600 c8 -5 20 -10 25 -10 6 0 3 5 -5 10 -8 5 -19 10 -25 10 -5
0 -3 -5 5 -10z"/>
<path d="M1414 587 c-9 -5 -35 -6 -58 -3 -29 4 -37 3 -26 -4 22 -14 101 -11
130 5 l25 14 -28 -1 c-15 -2 -34 -6 -43 -11z"/>
<path d="M1210 586 c0 -6 81 -42 110 -50 14 -3 -2 7 -35 24 -58 28 -75 34 -75
26z"/>
<path d="M357 533 c8 -3 11 -18 7 -46 l-6 -42 90 -47 c50 -27 98 -48 107 -48
9 0 13 -4 10 -10 -4 -6 12 -10 42 -9 39 1 43 3 23 9 -14 4 -19 8 -12 9 8 1 28
7 45 15 18 8 39 17 47 19 8 3 -18 6 -58 6 l-72 1 17 28 c10 15 22 30 28 34 6
5 6 8 -2 8 -6 0 -20 -12 -31 -27 l-20 -27 -42 29 c-23 16 -50 34 -60 40 -10 5
-40 22 -66 38 -25 15 -49 27 -53 26 -3 0 -1 -3 6 -6z"/>
<path d="M858 343 c7 -3 16 -2 19 1 4 3 -2 6 -13 5 -11 0 -14 -3 -6 -6z"/>
</g>
</svg>
